#!OML:ASF F:\VICON\USERDATA\INSTALL\rory3\rory3.ASF
:FULLY-SPECIFIED
:DEGREES
21
root 0.37109272482844463 17.882260434458153 24.427094425979867 -3.263140876396999 -1.7213392231653726 0.5566031161507938
lfemur -1.7726754974007175 -2.494720355350384 -26.94898516931777
ltibia 25.832078013542276
lfoot -14.142386070403505 -3.1652351332458877
ltoes 1.9365028472939687
rfemur -24.872535321784905 -0.07163314491063444 19.839881609299354
rtibia 58.226289496787516
rfoot -6.815654028184525 -6.621223547510516
rtoes 8.279179744435424
lowerback nan -0.18410050552598828 -2.125269028711817
upperback 0.3729256997519069 -0.4116158953028133 0.5266353805462614
thorax -4.530721971922351 -0.12437416605862828 1.8447096929247795
lowerneck -14.545354645965741 -2.4150525769371587 -1.8331836988177614
upperneck 20.74745797453454 -2.9961019041916837 0.6030995033469273
head 8.933656646239411 -1.4977735942605905 0.15724158477995365
lclavicle -9.333834038205801e-15 -2.0662614452902946e-14
lhumerus -30.163386325288098 3.707095129030127 78.59430407816461
lradius 24.80306573965305
lwrist 8.25761557699876
lhand -36.243697317113764 4.306176325735795
lfingers nan
lthumb -9.159749215843483 34.40206403628109
rclavicle -1.0005386192532803e-14 -2.056989203680664e-14
rhumerus -29.111579633164087 -21.60322528912188 -78.57959662833505
rradius 24.68055150139124
rwrist 6.638696241321263
rhand -18.594459169042953 nan
rfingers nan
rthumb 7.669071725950861 -14.125641072647106
22
root 0.4183089384263727 17.868182905572375 23.78317215367639 -2.872279609547148 -0.5335754656334339 1.0041190426278694
lfemur 2.2612767744391125 -1.8371528913776736 -26.81802020565069
ltibia 23.517651115577248
lfoot -13.62876109125597 -4.29512422865118
ltoes 0.6885626783333287
rfemur -23.777357741749498 3.9838830978268405 17.28189807583785
rtibia 45.705703928946534
rfoot -10.09202259498246 -10.298192602646077
rtoes 10.202859110022555
lowerback nan -0.6316575103215047 -3.0659151225419796
upperback 0.3367511392771749 -1.0597258254926407 0.7405911929153799
thorax -4.5265746093322115 -0.3977506664021295 2.707330509910034
lowerneck -15.588120938497903 -2.4760630753999764 -1.870201619486389
upperneck 20.809711656631105 -2.8543117079599147 0.6139402040522215
head 9.07950785069299 -1.463868137313752 0.16560045369932114
lclavicle 7.701904359764235e-15 6.763313635191004e-15
lhumerus -28.89452837276413 4.062271540931407 78.50252780734218
lradius 25.779824159895252
lwrist 8.060795691690235
lhand -35.67330503599598 1.7079880760145052
lfingers nan
lthumb -8.632213986006771 31.440310872033017
rclavicle 6.877072859135424e-15 6.347332278063889e-15
rhumerus -29.43236072771302 -23.09205172181339 -77.50589864962326
rradius 23.603470299932585
rwrist 6.910662088001239
rhand -17.492718776787274 nan
rfingers nan
rthumb 8.721456595754688 -11.204675812754736
23
root 0.4202378782941254 17.831389635071993 23.84716344922478 -2.6398543954908966 0.4204123796159567 1.3512003431721475
lfemur 5.352439469114016 -2.9592107837846955 -26.48428663007477
ltibia 24.02298100053347
lfoot -14.101634690938074 -3.9964197569479634
ltoes -2.184822924917367
rfemur -23.29837638434918 6.941687676757454 16.051801950479174
rtibia 40.36666068839756
rfoot -12.539092532246 -11.874011498236959
rtoes 10.924839883544589
lowerback nan -1.0023226832438217 -3.3083009208647027
upperback 0.2839574666367532 -1.5381787922783816 0.8847158344541125
thorax -4.75101722306712 -0.6126711842430446 3.031448678558971
lowerneck -15.50673912435188 -2.563306942511365 -2.0309921623057114
upperneck 20.6542601602439 -2.9727968146768897 0.7700380563180236
head 9.02121234392984 -1.5085321943429277 0.2549495984519063
lclavicle -2.807921605281713e-14 -2.9732412754669526e-14
lhumerus -27.94673589270556 3.6488248864276813 78.61515241992615
lradius 26.78211098687928
lwrist 8.371693474369945
lhand -35.3885621766914 8.53855904126393
lfingers nan
lthumb -8.305831280581057 38.00015195517449
rclavicle -2.8334127940345798e-14 -3.0053589333131656e-14
rhumerus -30.809546833863735 -25.94311522016126 -75.44156173433876
rradius 22.66986421966746
rwrist 9.173219479693572
rhand -17.524366453213215 nan
rfingers nan
rthumb 8.697035199964521 -11.725200674716625
24
root 0.3888242918001879 17.796462556892422 24.08232123998993 -2.713513065426773 0.6410182340906974 1.6782510928321512
lfemur 8.030714073845749 -4.298874488489437 -26.178141442397326
ltibia 25.968125966688145
lfoot -13.459380536867108 -4.052105515837608
ltoes -4.277251414654211
rfemur -24.315194043618042 3.2428951310776513 19.133484196841422
rtibia 45.196088412587876
rfoot -9.29283764337711 -4.912804030997227
rtoes 11.464275861852883
lowerback nan -1.094578680794552 -3.3975669195993516
upperback 0.6568286175617024 -1.471698228975378 1.179928502432578
thorax -4.3666446560428245 -0.6608003738255552 3.2159094343398973
lowerneck -15.767784233182658 -2.771414628672506 -1.947705543935206
upperneck 20.435540445644833 -3.1940381081199183 0.5664376631061028
head 8.964134457661116 -1.6381837435510234 0.13659719666003306
lclavicle -2.8394594388778042e-14 5.511055064178154e-15
lhumerus -26.819104138654534 3.816030818140682 78.74675353647064
lradius 27.153987253164225
lwrist 8.255780196280433
lhand -34.25619639470152 10.426759036546827
lfingers nan
lthumb -7.1804010738515185 39.80192187039636
rclavicle -2.86200352704498e-14 5.0814175213629506e-15
rhumerus -31.399286374670286 -28.129503195693868 -73.99666051425969
rradius 21.615135306176022
rwrist 9.021238534325063
rhand -17.127278200467448 nan
rfingers nan
rthumb 9.080348000095338 -12.078053220595237
